<svg xmlns="http://www.w3.org/2000/svg" width="640" height="457.843" viewBox="0 0 640 457.843">
  <defs>
    <style>
      .cls-1 {
        fill: #f0bc44;
      }
    </style>
  </defs>
  <path id="volume-high-solid" class="cls-1" d="M533.6,32.5a287.938,287.938,0,0,1,0,447,24.028,24.028,0,0,1-30.3-37.3,239.891,239.891,0,0,0,0-372.5,24.028,24.028,0,0,1,30.3-37.3ZM473.1,107a192.016,192.016,0,0,1,0,298,24.028,24.028,0,0,1-30.3-37.3,143.969,143.969,0,0,0,0-223.5,24.028,24.028,0,0,1,30.3-37.3Zm-60.5,74.5a96.093,96.093,0,0,1,0,149,24.028,24.028,0,0,1-30.3-37.3,48.047,48.047,0,0,0,0-74.5,24.028,24.028,0,0,1,30.3-37.3ZM301.1,34.8A32.054,32.054,0,0,1,320,64V448a32.009,32.009,0,0,1-53.3,23.9L131.8,352H64A64.059,64.059,0,0,1,0,288V224a64.059,64.059,0,0,1,64-64h67.8L266.7,40.1A32.119,32.119,0,0,1,301.1,34.8Z" transform="translate(0 -27.049)"/>
</svg>
