<svg xmlns="http://www.w3.org/2000/svg" width="575.95" height="448.006" viewBox="0 0 575.95 448.006">
  <defs>
    <style>
      .cls-1 {
        fill: #f0bc44;
      }
    </style>
  </defs>
  <path id="volume-xmark-solid" class="cls-1" d="M301.1,34.8A32.054,32.054,0,0,1,320,64V448a32.009,32.009,0,0,1-53.3,23.9L131.8,352H64A64.059,64.059,0,0,1,0,288V224a64.059,64.059,0,0,1,64-64h67.8L266.7,40.1A32.119,32.119,0,0,1,301.1,34.8ZM425,167l55,55,55-55a23.971,23.971,0,1,1,33.9,33.9l-55,55,55,55A23.971,23.971,0,0,1,535,344.8l-55-55-55,55a23.971,23.971,0,0,1-33.9-33.9l55-55-55-55A23.971,23.971,0,1,1,425,167Z" transform="translate(0 -32.019)"/>
</svg>
