<svg xmlns="http://www.w3.org/2000/svg" width="131.232" height="114.341" viewBox="0 0 131.232 114.341">
  <defs>
    <style>
      .cls-1 {
        fill: #f0bc44;
      }

      .cls-2 {
        fill: #e7af2e;
      }

      .cls-3 {
        fill: #aa7a09;
      }

      .cls-4 {
        fill: #d29403;
      }
    </style>
  </defs>
  <g id="Сгруппировать_1" data-name="Сгруппировать 1" transform="translate(-249.019 -449.049)">
    <path id="Контур_1" data-name="Контур 1" class="cls-1" d="M23.8-4.011,69.76,17.045,0,17Z" transform="translate(279.997 449.676) rotate(81)"/>
    <path id="Контур_2" data-name="Контур 2" class="cls-2" d="M32.8,12.067,46.239,37.619.265,16.565Z" transform="translate(303.997 469.676) rotate(81)"/>
    <path id="Контур_4" data-name="Контур 4" class="cls-1" d="M18.3,38.187,10.7,57.34-2.665,32.022Z" transform="translate(328.997 501.676) rotate(81)"/>
    <path id="Контур_13" data-name="Контур 13" class="cls-1" d="M19.971,33.242,17.214,56.6-1.375,43.473Z" transform="translate(350.146 478.317) rotate(81)"/>
    <path id="Контур_8" data-name="Контур 8" class="cls-1" d="M16.663,20.461,6.318,39.834l-9.779-7.95Z" transform="translate(306.14 519.563) rotate(81)"/>
    <path id="Контур_9" data-name="Контур 9" class="cls-1" d="M14.844,28.191,6.824,39.42l-20.8-19.06Z" transform="translate(290.14 542.563) rotate(81)"/>
    <path id="Контур_6" data-name="Контур 6" class="cls-1" d="M16.488,2.355,7.376,88.162-8.467,38.785Z" transform="translate(379.997 504.676) rotate(81)"/>
    <path id="Контур_17" data-name="Контур 17" class="cls-1" d="M-8.964,10.418l.431,30.823-5.209-3.053Z" transform="translate(371.355 492.133) rotate(81)"/>
    <path id="Контур_5" data-name="Контур 5" class="cls-2" d="M16.717,61.247-4.224,55.1.854,11.89Z" transform="translate(351.99 499.676) rotate(81)"/>
    <path id="Контур_15" data-name="Контур 15" class="cls-2" d="M18.141,34.876l-23.583.356L6.6,23.979Z" transform="translate(351.99 479.846) rotate(81)"/>
    <path id="Контур_16" data-name="Контур 16" class="cls-3" d="M24.384,32.891,12.344,44.108l6.864-14.252Z" transform="translate(357.99 460.924) rotate(81)"/>
    <path id="Контур_7" data-name="Контур 7" class="cls-2" d="M4.445,39.384-15.64,50.821l7.614-19.076Z" transform="translate(326.738 528.676) rotate(81)"/>
    <path id="Контур_10" data-name="Контур 10" class="cls-2" d="M6.271,49.731l-28.749-7.8,4.166-7.823Z" transform="translate(312.738 547.676) rotate(81)"/>
    <path id="Контур_3" data-name="Контур 3" class="cls-4" d="M1.722,31.331l25,11.5-1.5,6.09L.645,33.335Z" transform="translate(308.973 529.064) rotate(81)"/>
    <path id="Контур_11" data-name="Контур 11" class="cls-4" d="M6.532,22.424,16.96,49.058,4.5,41.422Z" transform="translate(334.307 514.812) rotate(81)"/>
    <path id="Контур_12" data-name="Контур 12" class="cls-4" d="M17.778,35.81l5.584,4.208L-9.429,44.272Z" transform="translate(332.837 474.812) rotate(81)"/>
    <path id="Контур_14" data-name="Контур 14" class="cls-4" d="M23.851,30.652l.52,10.1L1.068,37Z" transform="translate(285.786 516.306) rotate(-109)"/>
  </g>
</svg>
